<svg width="22" height="23" viewBox="0 0 22 23" fill="none" xmlns="http://www.w3.org/2000/svg">
<g clip-path="url(#clip0_14_1784)">
<path d="M15.5366 19.675L15.2315 20.9272C14.316 21.2899 13.5847 21.566 13.0402 21.7558C12.495 21.9462 11.8616 22.0409 11.1399 22.0409C10.0316 22.0409 9.16961 21.7684 8.5548 21.227C7.93998 20.6836 7.63247 19.9949 7.63247 19.1594C7.63247 18.836 7.65479 18.5034 7.70118 18.1644C7.74796 17.8251 7.82234 17.4429 7.92412 17.0158L9.06822 12.9509C9.17001 12.5617 9.25652 12.1929 9.32581 11.8441C9.39608 11.4975 9.42995 11.1786 9.42995 10.8915C9.42995 10.3724 9.32288 10.0093 9.10972 9.80517C8.89656 9.60161 8.48981 9.49826 7.88596 9.49826C7.59019 9.49826 7.28621 9.54581 6.97635 9.63776C6.66513 9.73011 6.39912 9.81932 6.17578 9.90223L6.48172 8.64905C7.23121 8.34273 7.94761 8.08042 8.6329 7.86272C9.31818 7.64442 9.96569 7.53518 10.5782 7.53518C11.6788 7.53518 12.5281 7.8022 13.1245 8.33625C13.7209 8.87069 14.0191 9.56349 14.0191 10.4172C14.0191 10.5939 13.9995 10.9051 13.9574 11.3499C13.9163 11.7958 13.8398 12.2043 13.7282 12.5758L12.589 16.6244C12.4956 16.9496 12.4116 17.3213 12.3386 17.7396C12.2633 18.1552 12.2273 18.4727 12.2273 18.6857C12.2273 19.2233 12.3467 19.5903 12.586 19.7854C12.8272 19.9805 13.2426 20.0776 13.8325 20.0776C14.1095 20.0776 14.4246 20.0283 14.7748 19.9314C15.124 19.8345 15.3787 19.7495 15.5366 19.675ZM15.8255 2.67787C15.8255 3.38326 15.5607 3.98568 15.0285 4.48102C14.4976 4.97812 13.858 5.22687 13.1097 5.22687C12.359 5.22687 11.7177 4.97812 11.1808 4.48102C10.6449 3.98548 10.3763 3.38326 10.3763 2.67787C10.3763 1.97387 10.6449 1.37046 11.1808 0.868838C11.7168 0.367998 12.3592 0.117676 13.1097 0.117676C13.8578 0.117676 14.4976 0.368587 15.0285 0.868838C15.5611 1.37046 15.8255 1.97407 15.8255 2.67787Z" fill="#E02025"/>
</g>
<defs>
<clipPath id="clip0_14_1784">
<rect width="21.84" height="21.9232" fill="white" transform="translate(0.078125 0.117676)"/>
</clipPath>
</defs>
</svg>
