<svg width="40" height="41" viewBox="0 0 40 41" fill="none" xmlns="http://www.w3.org/2000/svg">
<path d="M11.704 10.4733C11.7535 10.6314 11.7381 10.8028 11.6613 10.9497C11.5845 11.0965 11.4525 11.2069 11.2943 11.2564L10.1016 11.6298L12.5005 19.2947V8.91357L11.3305 9.27982L11.704 10.4733Z" fill="#0F4471"/>
<path d="M24.7023 37.166H17.5C17.3342 37.166 17.1753 37.1002 17.0581 36.983C16.9408 36.8657 16.875 36.7068 16.875 36.541V35.291H15.625C15.4592 35.291 15.3003 35.2252 15.1831 35.108C15.0658 34.9907 15 34.8318 15 34.666V7.16602C15 7.00026 15.0658 6.84128 15.1831 6.72407C15.3003 6.60686 15.4592 6.54102 15.625 6.54102H16.875V5.29102C16.875 5.12526 16.9408 4.96628 17.0581 4.84907C17.1753 4.73186 17.3342 4.66602 17.5 4.66602H25C25.1658 4.66602 25.3247 4.73186 25.4419 4.84907C25.5592 4.96628 25.625 5.12526 25.625 5.29102V6.54102H26.875C27.0408 6.54102 27.1997 6.60686 27.3169 6.72407C27.4342 6.84128 27.5 7.00026 27.5 7.16602V27.9739L27.8195 28.416H28.75V3.41602H13.75V38.416H26.0542C25.55 38.0613 25.0953 37.6409 24.7023 37.166Z" fill="#0F4471"/>
<path d="M12.502 27.6656V23.4795L8.72352 11.4067C8.69899 11.3284 8.69013 11.246 8.69745 11.1642C8.70476 11.0825 8.72811 11.003 8.76615 10.9302C8.8042 10.8575 8.85619 10.793 8.91917 10.7403C8.98215 10.6877 9.05488 10.648 9.1332 10.6235L10.3259 10.2501L9.95242 9.05668C9.90292 8.89849 9.91828 8.72712 9.99512 8.58026C10.072 8.43339 10.204 8.32307 10.3622 8.27356L12.502 7.60355V6.29395L6.41016 8.20082L12.502 27.6656Z" fill="#0F4471"/>
<path d="M24.3633 23.6329L26.25 26.2441V7.79102H25C24.8342 7.79102 24.6753 7.72517 24.5581 7.60796C24.4408 7.49075 24.375 7.33178 24.375 7.16602V5.91602H18.125V7.16602C18.125 7.33178 18.0592 7.49075 17.9419 7.60796C17.8247 7.72517 17.6658 7.79102 17.5 7.79102H16.25V34.041H17.5C17.6658 34.041 17.8247 34.1069 17.9419 34.2241C18.0592 34.3413 18.125 34.5003 18.125 34.666V35.916H23.878C23.4091 35.002 23.1525 33.994 23.1272 32.9671L19.1904 27.1405C18.8738 26.6708 18.6905 26.124 18.6599 25.5584C18.6293 24.9928 18.7526 24.4294 19.0166 23.9283C18.4126 23.481 17.9569 22.8626 17.7085 22.1533C17.4602 21.4439 17.4306 20.6763 17.6238 19.95C17.8169 19.2236 18.2237 18.572 18.7915 18.0797C19.3594 17.5873 20.062 17.2769 20.8084 17.1886C21.5548 17.1004 22.3105 17.2383 22.9775 17.5847C23.6445 17.931 24.1921 18.4697 24.5493 19.131C24.9065 19.7923 25.0568 20.5456 24.9808 21.2933C24.9047 22.041 24.6058 22.7486 24.1228 23.3245C24.2093 23.4222 24.2896 23.5252 24.3633 23.6329Z" fill="#0F4471"/>
<path d="M29.9982 16.541V29.041C29.9982 29.2068 29.9323 29.3657 29.8151 29.483C29.6979 29.6002 29.539 29.666 29.3732 29.666H27.4982C27.3993 29.666 27.3018 29.6425 27.2137 29.5975C27.1257 29.5525 27.0496 29.4873 26.9916 29.4071L23.3428 24.3574C23.339 24.3521 23.335 24.3467 23.3315 24.3413C23.1955 24.1331 23.0194 23.9541 22.8135 23.8146C22.6076 23.6751 22.3761 23.5779 22.1323 23.5288C21.8885 23.4796 21.6374 23.4794 21.3935 23.5283C21.1497 23.5771 20.918 23.674 20.7119 23.8132C20.5059 23.9525 20.3296 24.1313 20.1933 24.3393C20.057 24.5474 19.9635 24.7804 19.9181 25.025C19.8728 25.2695 19.8766 25.5206 19.9292 25.7636C19.9818 26.0067 20.0823 26.2368 20.2247 26.4407L24.279 32.4411C24.3717 32.5783 24.4062 32.7467 24.3748 32.9094C24.4075 34.3798 25.014 35.7791 26.0649 36.8081C27.1157 37.8371 28.5274 38.4142 29.9982 38.416H33.7482V24.041C33.7479 23.7333 33.6722 23.4303 33.5277 23.1587L29.9982 16.541Z" fill="#0F4471"/>
<path d="M18.75 20.9159C18.75 21.3174 18.8467 21.713 19.032 22.0691C19.2174 22.4252 19.4858 22.7315 19.8146 22.9618C19.884 22.9059 19.9552 22.852 20.0302 22.8016C20.4811 22.4974 21.0036 22.3161 21.546 22.2757C22.0884 22.2352 22.6319 22.337 23.123 22.5709C23.391 22.2678 23.5814 21.9041 23.6779 21.5111C23.7744 21.1181 23.774 20.7075 23.6768 20.3147C23.5797 19.9219 23.3886 19.5585 23.12 19.2558C22.8514 18.9531 22.5134 18.7201 22.1349 18.5769C21.7564 18.4337 21.3488 18.3844 20.9471 18.4335C20.5455 18.4825 20.1617 18.6283 19.8288 18.8583C19.4958 19.0884 19.2237 19.3958 19.0358 19.7542C18.8479 20.1126 18.7499 20.5113 18.75 20.9159Z" fill="#0F4471"/>
</svg>
